{"glyphs":{":":{"x_min":0,"x_max":251,"ha":251,"o":"m 44 0 l 89 180 l 262 180 l 217 0 z m 134 360 l 179 540 l 351 540 l 307 360 z"},"$":{"x_min":0,"x_max":530,"ha":530,"o":"m 71 219 l 250 219 l 245 202 q 240 175 240 160 q 240 112 281 112 q 286 112 298 114 q 344 124 361 171 q 366 185 368 196 q 369 207 369 213 q 369 245 338 260 l 225 316 q 140 358 140 448 q 140 497 163 553 q 195 633 256 680 q 317 727 392 727 l 405 779 l 501 779 l 489 731 l 516 729 q 631 709 631 595 q 631 565 622 527 l 618 511 l 440 511 q 442 515 444 526 q 447 536 448 544 q 450 553 450 564 q 450 604 413 604 q 408 604 398 602 l 385 598 q 359 587 348 559 q 337 531 337 517 q 337 490 381 465 l 485 408 q 533 381 554 354 q 574 326 574 284 q 574 271 572 257 q 570 243 569 234 q 563 197 546 160 q 512 84 463 47 q 414 10 323 -9 l 300 -14 l 285 -73 l 191 -73 l 205 -16 l 187 -12 q 115 9 83 39 q 51 69 51 121 q 51 153 65 201 z"},"?":{"x_min":0,"x_max":464,"ha":464,"o":"m 128 483 l 295 483 l 313 552 q 316 566 322 577 q 329 588 340 597 q 350 606 358 608 q 367 610 374 610 q 387 610 398 602 q 408 593 409 581 l 403 543 q 393 513 382 495 q 371 477 345 454 l 301 414 l 257 376 q 239 357 226 336 q 214 314 206 289 l 205 286 l 187 216 l 355 216 l 360 236 q 364 250 370 262 q 375 273 386 288 q 393 297 413 316 l 494 388 q 538 427 561 487 q 570 511 574 527 q 579 543 579 562 q 580 571 580 587 q 580 657 541 694 q 502 730 421 730 q 383 730 341 723 q 182 698 131 498 z m 130 0 l 175 180 l 348 180 l 303 0 z"},"'":{"x_min":0,"x_max":211,"ha":211,"o":"m 104 474 l 126 720 l 252 720 l 230 474 z"},"a":{"x_min":0,"x_max":492,"ha":492,"o":"m 287 375 l 122 375 q 138 452 196 503 q 255 554 339 554 q 460 554 511 530 q 562 507 562 447 q 562 422 553 387 l 476 81 l 473 68 l 471 53 q 468 35 468 21 q 468 7 469 0 l 300 0 l 299 8 l 299 14 l 299 21 l 301 35 l 303 50 l 304 59 q 294 45 278 32 q 239 -1 187 -8 q 169 -11 152 -11 q 44 -11 44 91 q 44 102 45 108 q 45 120 48 133 q 51 146 53 154 q 70 220 100 253 q 130 286 192 308 l 220 317 l 329 343 q 357 349 369 360 q 381 372 387 395 q 390 407 390 416 q 390 448 343 448 q 311 448 295 399 z m 289 240 l 281 236 q 256 222 246 209 q 235 196 229 171 l 226 152 q 223 110 263 110 q 273 110 278 112 q 299 118 314 139 q 329 160 340 203 l 355 265 z"},"L":{"x_min":0,"x_max":455,"ha":455,"o":"m 41 0 l 220 720 l 411 720 l 271 158 l 503 158 l 463 0 z"},"3":{"x_min":0,"x_max":534,"ha":534,"o":"m 86 215 l 265 215 l 260 195 q 255 165 255 151 q 255 106 290 106 q 294 106 310 108 q 325 111 336 125 q 347 139 357 174 q 367 210 373 238 q 379 265 379 279 q 379 304 366 312 q 352 320 318 320 l 281 320 l 308 438 l 323 436 q 358 436 378 442 q 397 449 413 469 q 431 488 438 533 l 443 561 l 445 573 q 448 608 415 608 q 411 608 396 605 q 380 602 367 586 q 354 569 344 533 l 339 515 l 169 515 q 171 524 175 538 q 179 551 183 561 q 215 642 281 686 q 347 729 446 729 q 633 729 633 604 q 633 560 613 507 q 602 479 587 458 q 564 426 541 410 q 518 393 489 388 q 498 388 507 386 q 516 383 526 377 q 545 366 558 339 q 570 312 570 277 q 570 235 554 190 q 538 146 501 93 q 442 8 324 -6 q 304 -9 274 -10 q 245 -11 244 -11 q 154 -11 113 24 q 72 59 72 131 q 72 150 74 167 q 77 184 80 194 q 82 205 86 215 z"},";":{"x_min":0,"x_max":252,"ha":252,"o":"m 135 360 l 307 360 l 352 540 l 179 540 z m 3 -178 l 24 -95 l 40 -93 q 88 -83 104 -26 l 111 0 l 43 0 l 90 180 l 262 180 l 223 20 q 199 -76 150 -127 q 100 -178 31 -178 z"},"J":{"x_min":0,"x_max":493,"ha":493,"o":"m 50 232 l 221 232 q 214 215 211 202 q 208 190 208 170 q 207 160 207 156 q 207 112 239 112 q 244 112 260 115 q 275 118 286 136 q 298 153 310 202 l 439 720 l 630 720 l 497 188 q 494 174 490 162 q 485 149 477 133 q 444 64 390 27 q 337 -10 263 -10 q 141 -10 88 24 q 35 59 35 145 q 35 164 37 184 q 39 204 50 232 z"},"V":{"x_min":0,"x_max":541,"ha":541,"o":"m 146 0 l 172 720 l 375 720 l 315 182 l 524 720 l 727 720 l 394 0 z"},"\"":{"x_min":0,"x_max":391,"ha":391,"o":"m 126 720 l 252 720 l 230 474 l 104 474 z m 306 720 l 432 720 l 410 474 l 284 474 z"},"7":{"x_min":0,"x_max":533,"ha":533,"o":"m 119 0 l 145 69 q 196 192 248 276 q 299 361 418 515 l 455 562 l 174 562 l 213 720 l 676 720 l 641 579 q 537 449 452 298 q 368 148 315 0 z"},"S":{"x_min":0,"x_max":526,"ha":526,"o":"m 71 219 l 250 219 l 245 202 q 240 175 240 160 q 240 112 281 112 q 286 112 298 114 l 312 118 q 347 132 361 171 q 370 195 370 212 q 370 243 338 260 l 225 316 q 182 338 160 370 q 139 402 139 450 q 139 493 162 553 q 223 705 386 729 q 427 735 460 735 q 545 735 588 699 q 631 663 631 596 q 631 565 622 527 l 618 511 l 440 511 q 442 515 444 526 q 447 536 448 544 q 450 553 450 564 q 450 604 413 604 q 408 604 398 602 l 385 598 q 359 587 348 559 q 337 531 337 517 q 337 490 381 465 l 485 408 q 533 381 554 354 q 574 326 574 284 q 574 271 572 257 q 570 243 569 234 q 563 197 546 160 q 510 80 453 40 q 396 0 305 -10 q 272 -13 243 -13 q 147 -13 100 22 q 53 57 53 125 q 53 159 65 201 z"},"}":{"x_min":0,"x_max":343,"ha":343,"o":"m 24 -120 l 33 -45 l 46 -45 q 102 -45 109 6 l 141 270 q 149 330 209 353 q 221 358 237 360 l 211 366 q 186 377 173 400 q 160 422 163 450 l 196 714 q 197 719 197 727 q 197 748 186 756 q 174 765 145 765 l 133 765 l 142 840 l 268 840 q 352 840 352 762 q 352 752 351 747 l 312 432 q 308 401 324 380 q 341 360 369 360 q 340 360 319 340 q 298 320 294 288 l 256 -27 q 250 -70 222 -95 q 194 -120 150 -120 z"},"Z":{"x_min":0,"x_max":470,"ha":470,"o":"m 15 0 l 47 130 l 379 563 l 171 563 l 210 720 l 636 720 l 601 581 l 267 153 l 495 153 l 456 0 z"},"x":{"x_min":0,"x_max":467,"ha":467,"o":"m -11 0 l 200 280 l 129 540 l 313 540 l 331 391 l 423 540 l 606 540 l 406 280 l 477 0 l 294 0 l 274 162 l 172 0 z"},")":{"x_min":0,"x_max":349,"ha":349,"o":"m -23 -180 q 121 -10 190 207 q 239 363 239 504 q 239 615 209 720 l 353 720 q 405 605 405 468 q 405 416 396 344 q 387 273 356 189 q 325 105 271 13 q 213 -89 128 -180 z"},"&":{"x_min":0,"x_max":663,"ha":663,"o":"m 254 394 l 241 424 q 219 477 219 516 q 219 537 225 559 q 231 581 242 603 q 276 672 359 707 q 409 728 476 728 q 524 728 567 712 q 603 699 624 669 q 644 639 644 599 q 644 550 610 497 q 593 471 572 451 q 551 431 505 399 l 474 377 l 465 371 l 520 267 l 529 278 q 554 311 563 352 l 725 352 q 712 300 686 255 q 659 210 611 159 l 584 133 l 646 0 l 449 0 l 426 44 l 389 25 l 377 19 l 354 9 q 324 -4 302 -8 q 281 -11 241 -11 q 224 -11 214 -9 q 203 -7 198 -7 q 59 17 59 129 q 59 179 91 246 q 109 284 142 318 q 174 351 221 378 q 228 382 235 386 q 242 390 254 394 z m 305 276 q 275 259 260 236 q 246 213 246 189 q 246 173 251 162 q 266 127 303 127 q 312 127 322 129 q 331 131 340 135 q 350 139 369 151 l 379 158 l 318 283 z m 438 513 q 467 537 476 547 q 484 557 487 566 q 490 575 490 578 q 490 583 490 585 q 490 602 478 612 q 467 623 447 623 q 418 623 398 602 q 379 582 381 556 l 383 543 l 408 486 z"},"_":{"x_min":0,"x_max":439,"ha":439,"o":"m 36 -40 l 36 0 l 396 0 l 396 -40 z"},"v":{"x_min":0,"x_max":463,"ha":463,"o":"m 123 0 l 128 540 l 315 540 l 272 161 l 418 540 l 605 540 l 341 0 z"},"O":{"x_min":0,"x_max":556,"ha":556,"o":"m 75 165 q 90 276 91 281 q 96 307 114 375 q 155 528 191 593 q 224 654 284 691 q 339 724 399 730 q 417 731 433 732 q 449 734 468 734 q 566 734 610 694 q 654 654 654 563 q 654 493 626 375 q 587 214 548 142 q 510 69 449 31 q 395 -3 333 -9 q 303 -12 276 -12 q 176 -12 124 28 q 73 68 73 138 q 73 144 74 152 q 75 161 75 165 z m 266 145 q 269 113 304 113 q 313 113 322 116 q 348 123 365 158 q 382 193 413 307 q 422 343 444 451 q 466 559 466 574 q 466 608 428 608 q 424 608 412 606 q 385 598 368 562 q 351 527 320 414 q 313 390 290 286 q 266 182 266 174 z"},"(":{"x_min":0,"x_max":350,"ha":350,"o":"m 358 720 l 509 720 q 365 550 296 333 q 272 257 260 181 q 248 105 248 37 q 248 -75 278 -180 l 134 -180 q 107 -121 94 -62 q 81 -3 81 72 q 81 124 90 197 q 100 270 130 352 q 161 435 215 527 q 273 629 358 720 z"},"C":{"x_min":0,"x_max":541,"ha":541,"o":"m 625 461 l 441 461 l 450 500 q 462 553 462 567 q 462 573 461 577 q 454 605 424 605 q 415 605 402 600 q 377 591 360 548 q 344 506 305 347 q 279 241 272 210 q 266 178 266 156 q 266 136 276 124 q 286 112 305 112 q 310 112 324 116 q 349 125 364 154 q 379 182 399 263 l 404 289 l 590 289 q 589 278 587 270 q 585 263 580 243 q 547 124 488 66 q 428 9 326 -5 q 310 -8 293 -9 q 276 -10 256 -10 q 73 -10 73 149 q 73 182 82 223 l 106 334 l 109 346 l 143 474 q 176 596 239 656 q 302 715 412 726 q 444 730 477 730 q 564 730 603 695 q 642 660 642 584 q 642 539 628 474 z"},"W":{"x_min":0,"x_max":771,"ha":771,"o":"m 116 0 l 176 720 l 360 720 l 294 237 l 481 720 l 649 720 l 595 237 l 770 720 l 954 720 l 655 0 l 450 0 l 501 466 l 321 0 z"},"A":{"x_min":0,"x_max":568,"ha":568,"o":"m -7 0 l 355 720 l 572 720 l 575 0 l 378 0 l 388 121 l 241 121 l 190 0 z m 401 267 l 423 557 l 301 267 z"},"f":{"x_min":0,"x_max":296,"ha":296,"o":"m 54 0 l 158 418 l 96 418 l 127 540 l 189 540 l 204 603 q 214 643 242 674 q 270 705 300 719 q 331 733 377 733 l 412 733 l 487 727 l 459 614 l 434 614 l 420 614 l 416 614 l 409 611 q 384 601 379 581 l 369 540 l 442 540 l 411 418 l 338 418 l 234 0 z"},"Q":{"x_min":0,"x_max":556,"ha":556,"o":"m 462 38 l 504 -38 l 369 -129 l 298 -12 l 276 -12 q 174 -12 127 25 q 77 65 77 158 q 77 215 94 292 q 110 369 147 482 q 176 570 206 615 q 237 660 289 692 q 341 724 401 730 q 419 731 435 732 q 451 734 470 734 q 568 734 612 694 q 656 654 656 563 q 656 493 628 375 q 588 209 584 196 q 556 106 462 38 z m 268 145 q 271 113 306 113 q 315 113 324 116 q 350 123 367 158 q 384 193 415 307 l 442 416 q 460 494 464 520 q 469 546 469 563 q 469 572 467 590 q 465 608 430 608 q 426 608 414 606 q 387 598 370 562 q 353 527 322 414 q 315 390 292 286 q 268 182 268 174 z"},"w":{"x_min":0,"x_max":742,"ha":742,"o":"m 110 0 l 131 540 l 312 540 l 264 166 l 413 540 l 598 540 l 561 166 l 699 540 l 880 540 l 632 0 l 427 0 l 463 371 l 315 0 z"},"-":{"x_min":0,"x_max":370,"ha":370,"o":"m 83 215 l 121 368 l 434 367 l 396 215 z"},"E":{"x_min":0,"x_max":490,"ha":490,"o":"m 41 0 l 220 720 l 644 720 l 606 569 l 374 569 l 341 439 l 560 439 l 524 295 l 305 295 l 270 151 l 511 151 l 473 0 z"},"s":{"x_min":0,"x_max":458,"ha":458,"o":"m 54 170 l 217 170 l 216 167 l 213 154 q 210 140 210 129 q 210 95 245 95 q 254 95 273 97 q 292 99 305 129 q 311 144 311 156 q 311 170 301 180 l 295 186 l 291 188 l 285 190 l 182 232 q 141 249 124 278 q 108 308 108 360 q 115 430 173 490 q 199 516 236 532 q 272 547 325 553 q 336 553 350 554 q 363 555 369 555 q 379 555 392 554 q 404 553 410 553 q 540 539 540 451 q 540 431 534 408 l 530 388 l 529 383 l 372 383 l 373 386 l 376 399 q 378 411 378 416 q 378 446 342 446 q 335 445 331 445 q 296 442 286 410 q 282 396 282 392 q 282 377 301 367 l 308 364 l 313 362 l 430 316 q 493 291 493 222 q 493 207 491 197 q 489 187 489 182 q 483 153 471 126 q 409 -14 216 -14 l 181 -12 q 44 3 44 107 q 44 130 50 157 z"},"l":{"x_min":0,"x_max":251,"ha":251,"o":"m 37 0 l 216 720 l 396 720 l 217 0 z"},"8":{"x_min":0,"x_max":540,"ha":540,"o":"m 235 387 l 216 397 q 192 412 180 434 q 167 457 167 489 q 167 532 196 596 q 213 631 241 656 q 269 682 317 703 q 335 711 356 716 q 377 722 394 724 q 410 726 427 727 q 444 728 457 728 q 545 728 590 691 q 635 654 635 592 q 635 568 627 539 q 613 485 587 452 q 561 419 517 397 l 493 387 l 515 382 q 543 372 558 348 q 574 323 574 283 q 574 232 543 152 q 509 68 444 30 q 379 -7 263 -7 l 223 -6 q 65 -6 65 126 q 65 182 94 262 q 123 341 185 372 q 203 380 209 382 q 223 387 235 387 z m 309 108 q 324 111 334 120 q 343 128 355 152 q 362 164 370 190 q 377 215 382 244 q 388 272 388 289 q 388 306 377 317 q 366 328 349 328 q 338 328 326 322 q 303 312 289 284 q 275 256 259 188 q 257 178 257 170 q 257 145 268 126 q 279 107 301 107 q 306 107 309 108 z m 405 450 q 420 460 428 473 q 436 486 444 518 l 447 534 l 452 562 q 453 567 453 575 q 453 609 419 609 q 415 609 402 606 q 389 604 376 587 q 363 570 354 534 l 345 500 q 342 486 342 477 q 342 469 343 466 q 351 441 376 441 q 390 441 405 450 z"},"\\":{"x_min":0,"x_max":418,"ha":418,"o":"m 128 720 l 254 720 l 380 0 l 254 0 z"},"e":{"x_min":0,"x_max":490,"ha":490,"o":"m 530 243 l 266 243 l 244 156 q 241 136 242 125 q 245 98 276 98 q 282 98 298 103 q 313 108 324 123 q 336 138 343 167 l 348 189 l 516 189 q 512 174 510 166 q 507 158 499 140 q 437 7 303 -7 q 274 -9 262 -10 q 249 -11 240 -11 q 152 -11 111 24 q 70 59 70 137 q 70 192 92 280 q 126 409 186 476 q 245 542 329 552 q 372 557 401 557 q 485 557 524 524 q 562 490 562 419 q 562 407 560 390 q 559 374 555 352 q 546 306 536 266 q 534 257 530 243 z m 388 341 l 392 357 q 401 396 401 410 q 401 447 366 447 q 359 447 347 444 q 335 442 320 421 q 304 400 293 356 l 289 341 z"},"b":{"x_min":0,"x_max":521,"ha":521,"o":"m 37 0 l 216 720 l 396 720 l 339 489 q 368 526 412 544 q 428 551 429 551 q 435 553 450 556 q 464 559 484 559 q 536 559 566 526 q 597 494 597 437 q 597 423 596 416 q 590 362 573 294 q 545 182 518 125 q 491 68 454 37 q 422 10 390 -2 q 357 -15 326 -15 q 291 -15 266 0 q 241 15 230 42 q 225 58 225 60 l 210 0 z m 309 125 q 327 130 344 157 q 360 184 377 246 l 384 274 l 386 280 l 399 341 q 403 357 404 368 q 405 379 405 391 q 405 422 373 422 q 362 422 349 417 q 336 412 323 388 q 307 359 288 295 l 282 273 l 268 209 q 262 179 262 166 q 262 161 262 157 q 264 153 264 152 q 270 124 297 124 q 305 124 309 125 z"},"%":{"x_min":0,"x_max":788,"ha":788,"o":"m 143 463 q 146 486 150 511 q 154 536 166 570 q 192 652 224 684 q 257 716 321 724 q 349 728 376 728 q 432 728 456 705 q 480 682 480 630 q 480 603 474 568 q 472 549 470 539 q 467 529 458 500 q 431 419 398 386 q 364 353 302 345 q 279 342 260 342 q 199 342 170 370 q 142 399 142 445 q 142 457 143 463 z m 183 0 l 681 720 l 779 720 l 287 0 z m 487 114 q 487 143 493 168 q 494 173 509 221 q 536 303 568 335 q 601 367 664 375 q 692 379 719 379 q 824 379 824 280 q 824 254 820 230 q 815 205 810 186 q 806 167 801 151 q 775 70 742 37 q 708 4 645 -4 q 622 -7 603 -7 q 539 -7 511 28 q 487 58 487 114 z m 266 440 q 271 428 287 428 q 296 428 304 434 q 313 441 320 457 l 323 464 l 333 493 q 342 521 346 538 q 351 556 354 576 l 358 605 l 359 611 l 357 630 q 354 642 337 642 q 327 642 320 636 q 312 630 303 613 l 300 605 l 290 576 q 283 555 280 545 q 272 520 269 493 l 265 464 q 263 448 266 440 z m 610 89 q 613 78 629 78 q 639 78 648 84 q 656 91 664 107 l 667 115 l 677 144 l 693 204 l 700 243 l 702 256 l 702 262 q 703 272 700 282 q 698 293 681 293 q 671 293 662 286 q 654 279 647 263 l 643 256 l 633 227 q 628 213 614 143 q 612 133 608 115 l 608 99 z"},"m":{"x_min":0,"x_max":783,"ha":783,"o":"m 37 0 l 172 540 l 344 540 l 329 481 l 344 497 q 377 528 412 542 q 448 556 488 556 l 507 555 q 548 550 564 537 q 581 524 591 488 l 594 474 l 610 492 q 637 520 663 534 q 689 548 727 553 q 735 554 742 554 q 750 554 754 554 q 770 554 777 553 q 859 540 859 470 q 859 449 851 414 l 748 0 l 568 0 l 659 365 q 662 377 662 386 q 662 407 649 414 q 644 418 635 418 q 620 418 600 403 q 580 388 572 363 l 569 354 l 480 0 l 300 0 l 393 371 l 396 392 q 396 403 388 411 q 379 419 367 419 q 364 419 350 416 q 337 412 321 391 q 311 376 307 361 l 217 0 z"},",":{"x_min":0,"x_max":244,"ha":244,"o":"m -5 -178 l 16 -95 l 32 -93 q 80 -83 96 -26 l 103 0 l 37 0 l 82 180 l 254 180 l 215 20 q 191 -76 142 -127 q 92 -178 23 -178 z"},"n":{"x_min":0,"x_max":518,"ha":518,"o":"m 37 0 l 172 540 l 344 540 l 331 486 l 347 502 q 388 541 445 552 q 473 557 493 557 q 542 557 568 532 q 593 508 593 463 q 593 447 590 429 l 583 399 l 484 0 l 304 0 l 395 365 l 397 377 q 398 381 398 384 q 398 389 398 391 q 398 421 371 421 q 364 421 359 420 q 326 415 311 373 l 307 362 l 217 0 z"},"h":{"x_min":0,"x_max":519,"ha":519,"o":"m 37 0 l 216 720 l 396 720 l 339 489 l 354 505 q 399 545 449 554 q 477 559 496 559 q 544 559 568 534 q 593 510 593 465 q 593 449 590 431 l 584 402 l 484 0 l 304 0 l 395 365 l 397 377 q 398 381 398 384 q 398 389 398 391 q 398 421 371 421 q 364 421 359 420 q 326 415 311 373 l 307 362 l 217 0 z"},"z":{"x_min":0,"x_max":453,"ha":453,"o":"m 22 0 l 57 140 l 317 403 l 132 403 l 166 540 l 567 540 l 534 407 l 267 137 l 470 137 l 436 0 z"},"B":{"x_min":0,"x_max":562,"ha":562,"o":"m 41 0 l 220 720 l 502 720 q 582 720 623 687 q 664 654 664 591 q 664 554 649 509 q 641 487 630 469 q 619 451 601 433 q 561 391 507 378 q 519 378 530 374 q 541 370 552 363 q 602 332 602 263 q 602 238 596 212 q 590 186 575 154 q 508 0 331 0 z m 315 137 q 340 137 361 154 q 382 170 397 205 q 405 222 407 234 q 409 246 409 258 q 409 314 355 314 l 310 314 l 266 137 z m 381 437 q 400 437 414 444 q 429 452 444 471 q 452 481 455 491 q 464 518 464 536 q 464 581 412 581 l 377 581 l 341 437 z"},"K":{"x_min":0,"x_max":583,"ha":583,"o":"m 41 0 l 220 720 l 411 720 l 341 439 l 546 720 l 747 720 l 487 404 l 595 0 l 382 0 l 330 256 l 281 196 l 232 0 z"},"R":{"x_min":0,"x_max":560,"ha":560,"o":"m 41 0 l 220 720 l 516 720 q 672 720 672 591 q 672 544 650 484 q 617 391 525 362 l 508 357 q 544 352 566 326 q 587 299 587 258 q 587 242 585 232 q 583 222 582 217 l 546 75 l 544 62 q 540 37 540 19 q 540 6 541 0 l 353 0 q 351 14 351 18 q 351 30 361 79 l 365 97 l 397 228 q 398 230 400 240 q 401 249 401 254 q 401 295 353 295 l 305 295 l 232 0 z m 376 417 q 396 417 422 430 q 448 445 462 480 q 476 514 476 537 q 476 583 417 583 l 377 583 l 336 417 z"},"T":{"x_min":0,"x_max":450,"ha":450,"o":"m 129 562 l 168 720 l 640 720 l 600 562 l 464 562 l 323 0 l 133 0 l 273 562 z"},"P":{"x_min":0,"x_max":533,"ha":533,"o":"m 41 0 l 220 720 l 500 720 q 586 720 626 685 q 666 650 666 574 q 666 562 666 555 q 665 547 665 543 q 665 532 662 518 q 659 504 658 497 q 632 390 558 333 q 485 276 370 276 l 300 276 l 232 0 q 231 -1 207 -1 q 183 -1 171 -1 q 157 -1 149 -1 q 136 -1 130 -1 q 119 -1 113 -1 q 104 -1 99 -1 q 91 -1 87 -1 q 70 -1 60 -1 q 49 -1 41 0 z m 377 412 q 396 412 418 426 q 450 446 464 496 q 469 516 469 529 q 469 583 422 583 l 377 583 l 335 412 z"},"t":{"x_min":0,"x_max":309,"ha":309,"o":"m 90 128 l 162 418 l 96 418 l 127 540 l 193 540 l 232 697 l 412 697 l 373 540 l 443 540 l 413 418 l 342 418 l 277 158 q 275 148 275 143 q 275 117 305 117 l 338 117 l 309 1 q 289 -2 272 -4 q 255 -6 238 -6 q 221 -6 207 -6 q 193 -6 182 -7 q 174 -7 170 -6 q 118 -1 99 11 q 80 23 80 56 q 80 76 86 108 z"},"M":{"x_min":0,"x_max":766,"ha":766,"o":"m 41 0 l 220 720 l 484 720 l 458 297 l 644 720 l 907 720 l 728 0 l 555 0 l 682 510 l 456 0 l 312 0 l 341 510 l 214 0 z"},"g":{"x_min":0,"x_max":516,"ha":516,"o":"m 33 -33 l 196 -33 l 194 -39 q 189 -72 225 -78 l 245 -78 q 268 -74 281 -60 q 294 -45 303 -11 l 327 87 l 315 72 q 260 11 204 11 q 139 11 107 42 q 72 76 72 150 q 72 204 91 279 q 125 410 177 476 q 226 538 292 548 q 315 552 336 552 q 370 552 388 537 q 406 522 418 488 l 422 470 l 440 540 l 613 540 l 480 7 q 457 -83 404 -128 q 352 -172 254 -183 q 239 -185 214 -185 q 189 -185 177 -185 q 92 -185 57 -154 q 26 -127 26 -64 q 28 -47 33 -33 z m 315 151 q 334 162 347 186 q 360 211 375 270 q 387 314 390 339 q 394 364 394 383 q 394 399 384 408 q 375 418 360 418 q 356 418 348 416 q 326 409 309 380 q 289 346 272 274 q 270 264 262 208 q 258 176 258 174 q 265 143 291 143 q 302 143 315 151 z"},"j":{"x_min":0,"x_max":252,"ha":252,"o":"m -82 -173 l -52 -54 l -34 -54 l -22 -53 q 3 -51 15 -40 q 27 -29 34 -2 l 169 540 l 349 540 l 205 -37 q 186 -118 132 -147 q 77 -176 -47 -176 z m 180 583 l 214 720 l 394 720 l 360 583 z"},"i":{"x_min":0,"x_max":251,"ha":251,"o":"m 37 0 l 172 540 l 352 540 l 217 0 z m 182 583 l 216 720 l 396 720 l 362 583 z"},"y":{"x_min":0,"x_max":458,"ha":458,"o":"m -7 -179 l 23 -59 l 58 -59 q 82 -59 93 -55 q 113 -47 122 -38 q 132 -30 134 -20 l 136 -1 l 123 540 l 311 540 l 278 186 l 419 540 l 600 540 l 318 -19 q 268 -119 215 -153 q 167 -184 74 -184 z"},".":{"x_min":0,"x_max":245,"ha":245,"o":"m 37 0 l 82 180 l 255 180 l 210 0 z"},"p":{"x_min":0,"x_max":521,"ha":521,"o":"m -8 -180 l 171 540 l 344 540 l 332 489 q 360 526 408 544 q 425 552 439 554 q 453 556 462 558 q 471 559 481 559 q 535 559 566 527 q 597 495 597 437 q 597 423 596 416 q 590 362 573 294 q 545 182 518 125 q 491 68 454 37 q 421 10 390 -2 q 358 -15 329 -15 q 296 -15 272 0 q 248 15 237 42 q 232 58 232 60 l 172 -180 q 161 -179 146 -179 q 130 -179 115 -179 q 74 -179 46 -179 q 18 -179 -8 -180 z m 308 125 q 327 130 343 156 q 359 182 377 246 l 384 274 l 386 280 l 399 341 q 403 357 404 368 q 405 379 405 391 q 405 422 373 422 q 362 422 348 417 q 335 412 322 387 q 308 362 288 295 l 282 273 l 268 209 q 262 179 262 166 q 262 161 262 157 q 264 153 264 152 q 270 124 297 124 q 304 124 308 125 z"},"X":{"x_min":0,"x_max":538,"ha":538,"o":"m -11 0 l 247 366 l 176 720 l 387 720 l 395 503 l 511 720 l 721 720 l 474 366 l 549 0 l 342 0 l 323 220 l 196 0 z"},"*":{"x_min":0,"x_max":459,"ha":459,"o":"m 156 536 l 214 631 l 327 583 l 363 727 l 460 727 l 424 583 l 561 631 l 572 536 l 428 491 l 482 385 l 390 328 l 338 436 l 234 328 l 170 385 l 277 491 z"},"Y":{"x_min":0,"x_max":546,"ha":546,"o":"m 168 720 l 379 720 l 386 456 l 525 720 l 736 720 l 437 282 l 367 0 l 178 0 l 248 282 z"},"c":{"x_min":0,"x_max":490,"ha":490,"o":"m 560 341 l 395 341 l 399 361 l 403 380 q 406 403 406 411 q 406 415 404 425 q 397 449 371 449 q 360 449 347 441 q 325 428 310 394 q 295 361 272 274 q 250 186 250 156 q 250 145 252 126 q 254 107 287 107 q 291 107 298 109 q 303 111 310 114 q 327 123 338 140 q 350 157 360 194 l 367 223 l 369 231 l 533 231 l 521 184 q 492 98 442 53 q 392 8 316 -3 q 272 -9 237 -9 q 71 -9 71 143 q 71 196 89 268 q 127 415 188 482 q 248 550 342 560 q 389 565 417 565 q 501 565 537 534 q 573 503 573 434 q 573 422 572 406 q 570 389 566 367 z"},"!":{"x_min":0,"x_max":275,"ha":275,"o":"m 128 217 l 259 217 l 348 488 l 406 720 l 231 720 l 174 488 z m 52 0 l 97 180 l 270 180 l 225 0 z"},"/":{"x_min":0,"x_max":384,"ha":384,"o":"m 15 0 l 422 720 l 550 720 l 142 0 z"},"[":{"x_min":0,"x_max":326,"ha":326,"o":"m -8 -180 l 216 720 l 492 720 l 459 590 l 357 590 l 197 -50 l 300 -50 l 267 -180 z"},"6":{"x_min":0,"x_max":537,"ha":537,"o":"m 630 540 l 456 540 l 459 551 q 461 561 461 567 q 461 574 457 586 q 450 609 422 609 q 406 609 390 597 q 373 585 364 567 q 356 549 342 498 l 322 429 q 349 453 383 467 q 417 479 436 479 q 518 479 553 454 q 588 428 588 363 q 588 342 583 305 q 575 251 556 201 q 518 100 466 56 q 413 11 319 -3 q 295 -7 266 -7 q 259 -7 253 -7 q 244 -5 240 -5 q 155 5 120 36 q 80 72 80 151 q 80 248 143 458 q 183 591 244 652 q 306 712 411 724 q 438 726 450 727 q 462 728 471 728 q 555 728 596 694 q 636 660 636 596 q 636 588 636 584 q 636 576 634 562 z m 312 116 q 329 121 344 142 q 358 163 374 214 q 390 264 390 300 q 390 313 389 319 q 389 349 359 349 q 354 349 338 346 q 323 342 310 324 q 297 305 281 256 q 278 246 270 199 q 262 152 262 148 q 267 114 299 114 q 302 114 312 116 z"},"r":{"x_min":0,"x_max":356,"ha":356,"o":"m 37 0 l 172 540 l 345 540 l 326 466 l 338 480 q 374 521 406 538 q 439 556 481 556 l 506 555 l 464 384 l 441 387 q 372 387 338 366 q 303 346 291 295 l 217 0 z"},"2":{"x_min":0,"x_max":534,"ha":534,"o":"m 33 0 q 44 55 70 106 q 96 156 141 209 q 157 228 184 252 q 211 276 260 314 l 330 371 q 388 421 408 444 q 429 467 438 490 q 455 533 455 561 q 455 608 417 608 q 407 608 401 606 q 381 600 366 578 q 352 557 339 507 l 335 484 l 157 484 l 163 514 q 181 586 214 628 q 247 671 310 701 q 347 719 390 724 q 433 728 463 728 q 561 728 602 686 q 640 648 640 564 q 640 490 616 445 q 596 407 533 349 l 378 222 l 361 208 l 331 182 l 316 169 l 310 163 l 294 144 l 536 144 l 500 0 z"},"{":{"x_min":0,"x_max":343,"ha":343,"o":"m 66 360 q 95 360 116 380 q 137 400 141 432 l 179 747 q 185 790 213 815 q 241 840 285 840 l 411 840 l 402 765 l 389 765 q 333 765 326 714 l 294 450 q 286 389 225 367 q 215 362 198 360 q 230 360 252 336 q 273 313 273 279 q 272 273 272 270 l 239 6 q 238 -3 238 -7 q 238 -28 250 -36 q 261 -45 290 -45 l 302 -45 l 293 -120 l 167 -120 q 83 -120 83 -42 q 83 -32 84 -27 l 123 288 q 127 319 111 340 q 95 360 66 360 z"},"9":{"x_min":0,"x_max":537,"ha":537,"o":"m 83 180 l 256 180 l 253 169 q 252 165 252 162 q 252 157 252 155 q 252 143 255 134 q 263 111 290 111 q 306 111 323 123 q 340 135 348 152 q 357 170 371 222 l 390 291 q 364 266 330 254 q 296 241 276 241 q 195 241 160 267 q 124 293 124 357 q 124 378 128 408 q 133 439 140 466 q 147 492 157 519 q 194 620 246 664 q 299 709 393 723 q 417 727 446 727 q 452 727 460 726 q 468 725 472 725 q 557 716 595 682 q 633 649 633 570 q 633 472 569 262 q 529 129 468 68 q 406 8 302 -4 q 273 -8 242 -8 q 157 -8 116 26 q 76 61 76 126 q 76 133 76 141 q 78 153 78 158 z m 323 401 q 326 371 355 371 q 359 371 369 373 q 389 378 402 398 q 416 417 431 464 q 443 501 449 544 q 450 550 450 561 q 450 606 415 606 q 411 606 397 602 q 383 599 369 578 q 355 558 339 508 q 335 494 329 458 q 323 422 323 401 z"}," ":{"x_min":0,"x_max":290,"ha":290,"o":""},"I":{"x_min":0,"x_max":270,"ha":270,"o":"m 41 0 l 220 720 l 411 720 l 232 0 z"},"H":{"x_min":0,"x_max":568,"ha":568,"o":"m 41 0 l 220 720 l 411 720 l 344 450 l 451 450 l 519 720 l 709 720 l 530 0 l 339 0 l 412 292 l 305 292 l 232 0 z"},"4":{"x_min":0,"x_max":534,"ha":534,"o":"m 53 147 l 88 289 l 419 720 l 622 720 l 513 285 l 577 285 l 543 147 l 479 147 l 442 0 l 262 0 l 302 147 z m 342 284 l 401 519 l 230 284 z"},"~":{"x_min":0,"x_max":494,"ha":494,"o":"m 73 271 l 74 296 q 81 374 114 414 q 146 453 199 453 q 214 453 228 450 q 241 447 262 440 l 345 408 l 368 400 q 377 397 384 397 q 403 397 413 426 q 417 438 417 445 l 418 454 l 511 454 l 510 429 q 496 273 386 273 q 359 273 322 286 l 239 317 l 216 325 q 208 329 199 329 q 182 329 171 299 q 167 289 167 281 l 166 271 z"},"D":{"x_min":0,"x_max":560,"ha":560,"o":"m 41 0 l 220 720 l 510 720 q 585 720 623 681 q 661 642 661 557 q 661 530 658 502 q 655 473 648 440 q 641 408 635 380 q 633 372 619 322 q 576 168 528 104 q 479 39 388 12 q 344 0 309 0 z m 300 137 q 350 137 374 170 q 397 204 428 320 q 445 384 464 479 l 466 488 l 471 516 q 472 522 472 533 q 472 583 415 583 l 377 583 l 266 136 z"},"^":{"x_min":0,"x_max":538,"ha":538,"o":"m 55 155 l 289 576 l 524 155 l 381 155 l 289 335 l 198 155 z"},"0":{"x_min":0,"x_max":540,"ha":540,"o":"m 80 203 q 88 257 92 275 q 95 293 113 361 q 165 566 229 646 q 293 726 402 726 q 529 726 579 696 q 637 661 637 566 q 637 474 577 265 q 535 121 472 57 q 408 -7 310 -7 q 189 -7 132 35 q 76 77 76 158 q 76 175 78 186 q 80 197 80 203 z m 305 109 q 326 113 340 132 q 354 151 369 199 l 446 509 q 454 549 454 569 q 454 611 421 611 q 418 611 401 608 q 384 605 370 586 q 357 568 342 519 l 300 362 l 268 227 q 264 209 260 192 q 257 174 257 165 q 256 159 256 149 q 256 108 291 108 q 300 108 305 109 z"},"F":{"x_min":0,"x_max":466,"ha":466,"o":"m 41 0 l 220 720 l 647 720 l 610 569 l 374 569 l 342 441 l 562 441 l 526 297 l 306 297 l 232 0 z"},"`":{"x_min":0,"x_max":265,"ha":265,"o":"m 183 731 l 349 731 l 357 583 l 243 583 z"},"k":{"x_min":0,"x_max":520,"ha":520,"o":"m 37 0 l 216 720 l 396 720 l 307 362 l 453 540 l 647 540 l 443 320 l 532 0 l 335 0 l 290 187 l 252 141 l 217 0 z"},"u":{"x_min":0,"x_max":519,"ha":519,"o":"m 73 142 l 172 540 l 352 540 l 261 175 l 259 163 q 258 158 258 155 q 258 150 258 148 q 258 119 284 119 q 292 119 297 120 q 330 125 345 167 l 348 178 l 439 540 l 619 540 l 484 0 l 311 0 l 325 56 l 309 39 q 268 0 211 -10 q 199 -12 188 -14 q 178 -15 163 -15 q 113 -15 88 9 q 63 33 63 77 q 63 85 64 96 q 66 107 67 113 z"},"]":{"x_min":0,"x_max":326,"ha":326,"o":"m -30 -180 l 2 -50 l 105 -50 l 265 590 l 162 590 l 194 720 l 470 720 l 245 -180 z"},"U":{"x_min":0,"x_max":571,"ha":571,"o":"m 95 219 l 220 720 l 411 720 l 278 188 l 274 166 q 273 160 273 149 q 273 110 311 110 q 316 110 333 113 q 350 116 364 133 q 377 150 386 188 l 519 720 l 710 720 l 585 221 q 533 11 352 -8 q 304 -13 271 -13 q 83 -13 83 132 q 83 171 95 219 z"},"o":{"x_min":0,"x_max":508,"ha":508,"o":"m 102 314 q 142 444 196 500 q 250 556 342 556 q 468 556 518 528 q 567 499 567 417 q 567 375 553 307 l 533 226 q 493 96 438 40 q 383 -16 289 -16 q 170 -16 124 7 q 65 37 65 123 q 65 193 102 314 z m 298 104 q 310 113 319 128 q 328 144 337 174 q 356 247 374 322 q 392 396 389 417 q 386 443 358 443 q 355 443 345 441 q 327 435 311 407 q 291 372 287 343 q 270 277 262 243 q 238 139 242 123 q 250 95 273 95 q 286 95 298 104 z"},"N":{"x_min":0,"x_max":581,"ha":581,"o":"m 41 0 l 220 720 l 426 720 l 441 286 l 549 720 l 722 720 l 542 0 l 340 0 l 322 432 l 214 0 z"},"G":{"x_min":0,"x_max":555,"ha":555,"o":"m 635 492 l 450 492 l 451 497 l 458 525 q 461 537 462 548 q 463 560 463 572 q 463 607 427 607 q 421 607 404 602 q 386 596 372 571 q 357 546 339 485 l 303 357 l 276 242 q 272 224 268 204 q 263 184 263 166 q 263 112 305 112 q 316 112 325 116 q 334 119 342 124 q 361 137 372 158 q 382 180 396 237 l 402 263 l 339 263 l 370 385 l 610 385 l 514 0 l 386 0 l 395 57 l 380 43 q 328 -2 274 -10 q 236 -15 211 -15 q 140 -15 108 20 q 75 54 75 131 q 75 191 97 296 l 110 355 q 161 559 222 635 q 283 711 402 726 q 444 732 478 732 q 566 732 607 695 q 648 658 648 584 q 648 561 643 526 q 642 510 635 492 z"},"q":{"x_min":0,"x_max":525,"ha":525,"o":"m 434 489 l 447 540 l 620 540 l 440 -180 l 260 -180 l 320 60 l 306 42 q 265 -2 219 -11 q 202 -14 187 -14 q 131 -14 98 24 q 64 61 64 125 q 64 139 65 146 q 66 154 69 172 q 101 342 134 417 q 167 492 223 529 q 266 558 308 558 q 342 558 376 538 q 404 521 434 489 z m 307 128 q 325 136 338 161 q 351 186 371 255 l 392 354 q 394 366 394 374 q 394 382 394 385 q 394 396 392 401 q 385 422 359 422 q 345 422 332 412 q 318 403 309 389 q 300 375 292 341 l 260 210 q 258 198 256 188 q 255 179 255 168 q 255 160 256 156 q 262 123 285 123 q 294 123 307 128 z"},"d":{"x_min":0,"x_max":525,"ha":525,"o":"m 427 489 l 485 720 l 665 720 l 485 0 l 312 0 l 327 60 l 313 42 q 274 -1 221 -11 q 201 -14 184 -14 q 128 -14 98 22 q 69 57 69 130 q 69 175 83 240 q 111 370 142 433 q 173 496 223 529 q 264 556 302 556 q 327 556 356 543 q 384 530 427 489 z m 307 128 q 325 136 338 161 q 351 186 371 255 l 392 354 q 394 366 394 374 q 394 382 394 385 q 394 396 392 401 q 385 422 359 422 q 345 422 332 412 q 318 403 309 389 q 300 375 292 341 l 260 210 q 258 198 256 188 q 255 179 255 168 q 255 160 256 156 q 262 123 285 123 q 294 123 307 128 z"},"1":{"x_min":0,"x_max":533,"ha":533,"o":"m 179 490 l 210 614 l 228 613 l 269 616 q 324 622 356 640 q 388 658 414 698 l 427 720 l 556 720 l 376 0 l 189 0 l 311 490 z"},"5":{"x_min":0,"x_max":533,"ha":533,"o":"m 89 220 l 269 220 l 259 174 l 257 151 q 257 109 290 109 q 297 109 306 112 q 328 118 345 149 q 362 180 381 258 q 394 309 394 338 q 394 380 360 380 q 351 380 340 378 q 330 377 320 366 q 309 356 298 331 l 294 322 l 123 322 l 247 720 l 651 720 l 617 583 l 349 583 l 310 459 l 327 470 q 384 501 409 504 q 434 506 442 506 q 450 507 455 507 q 584 507 584 372 q 584 341 578 305 q 552 153 486 80 q 421 6 308 -6 q 296 -7 287 -8 q 278 -8 272 -8 q 261 -8 250 -8 q 239 -7 229 -7 q 150 1 112 35 q 75 69 75 137 q 75 155 77 170 q 79 186 82 198 q 85 210 89 220 z"}}}
